# xmcd CD database file
#
# Track frame offsets:
#	150
#	28818
#	54112
#	77957
#	100513
#	127298
#
# Disc length: 1987 seconds
#
# Revision: 0
# Processed by: cddbd v1.5PL3 Copyright (c) Steve Scherf et al.
# Submitted via: CDex 1.51
#
DISCID=4707c106
DTITLE=Lee Morgan - 1938-1972
DYEAR=1900
DGENRE=Jazz
TTITLE0=Bass
TTITLE1=Terrible "T"
TTITLE2=I'm A Fool To Want You
TTITLE3=Expoobident
TTITLE4=Easy Living
TTITLE5=Fire
EXTD=
EXTT0=
EXTT1=
EXTT2=
EXTT3=
EXTT4=
EXTT5=
PLAYORDER=
